<svg width="16" height="16" viewBox="0 0 16 16" fill="none" xmlns="http://www.w3.org/2000/svg">
<path opacity="0.4" d="M15.2312 9.86557L13.9 9.09682C14.0344 8.37182 14.0344 7.62807 13.9 6.90307L15.2312 6.13432C15.3844 6.04682 15.4531 5.86557 15.4031 5.69682C15.0562 4.58432 14.4656 3.57807 13.6937 2.74057C13.575 2.61244 13.3812 2.58119 13.2312 2.66869L11.9 3.43744C11.3406 2.95619 10.6969 2.58432 9.99998 2.34057V0.806191C9.99998 0.631191 9.87811 0.478066 9.70623 0.440566C8.55936 0.184316 7.38436 0.196816 6.29374 0.440566C6.12186 0.478066 5.99999 0.631191 5.99999 0.806191V2.34369C5.30624 2.59057 4.66249 2.96244 4.09999 3.44057L2.77186 2.67182C2.61874 2.58432 2.42811 2.61244 2.30936 2.74369C1.53749 3.57807 0.946865 4.58432 0.59999 5.69994C0.546865 5.86869 0.61874 6.04994 0.771865 6.13744L2.10311 6.90619C1.96874 7.63119 1.96874 8.37494 2.10311 9.09994L0.771865 9.86869C0.61874 9.95619 0.54999 10.1374 0.59999 10.3062C0.946865 11.4187 1.53749 12.4249 2.30936 13.2624C2.42811 13.3906 2.62186 13.4218 2.77186 13.3343L4.10311 12.5656C4.66249 13.0468 5.30624 13.4187 6.00311 13.6624V15.1999C6.00311 15.3749 6.12499 15.5281 6.29686 15.5656C7.44374 15.8218 8.61874 15.8093 9.70936 15.5656C9.88124 15.5281 10.0031 15.3749 10.0031 15.1999V13.6624C10.6969 13.4156 11.3406 13.0437 11.9031 12.5656L13.2344 13.3343C13.3875 13.4218 13.5781 13.3937 13.6969 13.2624C14.4687 12.4281 15.0594 11.4218 15.4062 10.3062C15.4531 10.1343 15.3844 9.95307 15.2312 9.86557ZM7.99999 10.4999C6.62186 10.4999 5.49999 9.37807 5.49999 7.99994C5.49999 6.62182 6.62186 5.49994 7.99999 5.49994C9.37811 5.49994 10.5 6.62182 10.5 7.99994C10.5 9.37807 9.37811 10.4999 7.99999 10.4999Z" fill="#9FA2B4"/>
</svg>
